<?xml version="1.0" encoding="UTF-8" standalone="no"?>
<!DOCTYPE svg PUBLIC "-//W3C//DTD SVG 1.1//EN" "http://www.w3.org/Graphics/SVG/1.1/DTD/svg11.dtd">
<svg width="100%" height="100%" viewBox="0 0 83 59" version="1.1" xmlns="http://www.w3.org/2000/svg" xmlns:xlink="http://www.w3.org/1999/xlink" xml:space="preserve" xmlns:serif="http://www.serif.com/" style="fill-rule:evenodd;clip-rule:evenodd;stroke-linejoin:round;stroke-miterlimit:2;">
    <rect id="annotation1" x="-0" y="0" width="83" height="59" style="fill:none;"/>
    <path d="M32.001,56.216c-0.428,0.002 -2.271,-0.147 -2.282,-0.224c0.688,0.079 2.157,0.153 2.282,0.224Zm3.649,0.29c-0.658,0.013 -2.104,-0.117 -2.561,-0.198c0.772,0.075 2.328,0.123 2.561,0.198Zm-5.6,-0.639c-0.985,-0.108 -2.828,-0.247 -3.273,-0.357c0.996,0.126 2.832,0.256 3.273,0.357Zm46.169,-9.118c-0.255,0.343 -1.555,1.663 -1.606,1.607c0.505,-0.449 1.475,-1.55 1.606,-1.607Zm-8.601,6.148c-0.63,0.368 -1.932,0.894 -2.302,0.998c0.601,-0.228 2.039,-0.937 2.302,-0.998Zm-4.903,2.008c-1.11,0.355 -2.326,0.683 -2.117,0.552c0.379,-0.041 1.972,-0.596 2.117,-0.552Zm-31.221,-1.933c1.455,0.153 2.503,0.169 3.469,0.234c4.846,0.322 -2.514,-0.027 -3.469,-0.234Zm22.382,3.689c0.877,-0.124 1.566,-0.226 1.987,-0.259c-0.797,0.136 -1.927,0.33 -1.987,0.259Zm-7.798,0.586c-0.205,0.051 -5.03,0.1 -7.789,-0.061c2.346,0.077 7.995,0.011 7.789,0.061Zm-3.181,-3.786c3.034,0.05 7.641,-0.27 9.647,-0.494c1.99,-0.221 -3.48,0.594 -9.054,0.627c-5.592,0.03 -0.964,-0.129 -3.298,-0.212c-2.317,-0.085 2.233,-0.013 4.47,-0.021c2.22,-0.007 -1.494,0.045 -1.765,0.1Zm-0.136,-0.265c-1.1,0.004 -2.063,-0.028 -2.701,-0.083c1.157,0.003 2.244,-0.014 2.701,0.083Zm-35.408,-13.056c-0.845,0.084 -3.025,-2.076 -4.386,-4.955c-0.329,-0.72 -0.618,-1.456 -0.873,-2.229c-1.424,-5.59 -0.226,-11.749 2.934,-16.644c0.628,-0.968 1.323,-1.894 2.103,-2.8c2.333,-2.729 5.275,-5.019 8.595,-6.807c1.102,-0.593 2.247,-1.131 3.424,-1.615c4.104,-1.778 8.175,-2.529 12.239,-2.947c2.032,-0.208 4.078,-0.328 6.147,-0.431c1.035,-0.054 5.775,0.165 7.417,0.396c-1.578,-0.318 5.976,0.777 5.641,0.718c0.815,0.211 1.66,0.423 2.499,0.631c0.839,0.211 -0.229,-0.018 -1.309,-0.224c0.949,0.23 1.889,0.463 2.835,0.711c0.995,0.253 1.976,0.529 2.97,0.84c3.247,0.967 7.075,2.731 9.868,4.578c3.874,2.431 10.171,8.414 12.497,15.169c2.326,6.756 1.207,12.672 1.38,10.301c0.382,-5.353 -0.008,-2.627 -0.054,-1.178c-0.025,0.85 -0.114,1.974 -0.34,3.185c0.035,-0.031 0.077,-0.119 0.121,-0.302c-0.359,2.32 -1.344,5.46 -3.181,8.012c0.317,-0.491 0.703,-1.132 0.804,-1.388c-0.782,1.375 -0.211,0.257 -0.803,1.104c-1.613,2.389 -2.534,3.431 -0.559,0.738c-1.888,2.464 -3.473,3.758 -6.206,5.474c-1.005,0.694 -0.458,0.313 -0.133,0.145c-0.882,0.611 -2.433,1.529 -3.911,2.232c-1.479,0.704 -2.341,1.016 -2.505,1.101c-0.081,0.043 0.503,-0.165 1.371,-0.532c0.868,-0.366 2.605,-1.192 3.953,-1.997c2.695,-1.608 4.697,-3.486 3.81,-2.687c-0.721,0.649 -2.39,1.849 -3.044,2.301c1.491,-0.94 3.119,-2.277 3.923,-2.992c-0.84,0.812 -2.16,1.856 -2.919,2.412c0.96,-0.67 1.573,-1.168 1.851,-1.364c-1.283,1.077 -2.321,1.841 -4.148,2.869c-0.821,0.437 0.695,-0.408 -1.08,0.512c-0.337,0.131 1.144,-0.639 1.023,-0.612c-1.399,0.769 -4.076,1.941 -4.653,2.145c-0.566,0.191 1.383,-0.564 1.415,-0.606c-4.368,1.862 -9.998,2.912 -11.778,3.153c-1.796,0.248 -0.113,0.004 0.639,-0.134c-2.075,0.301 -3.666,0.489 -6.256,0.65c-1.659,0.099 -1.002,0.041 -0.376,-0.016c-0.441,0.02 -0.834,0.034 -1.091,0.039c-0.188,0.002 -0.668,0.016 -0.996,0.014c1.032,-0.053 2.932,-0.155 3.75,-0.248c-1.51,0.075 -5.18,0.273 -6.547,0.223c2.171,-0.056 4.456,-0.132 6.771,-0.358c-4.521,0.355 -9.438,0.48 -13.388,0.146c0.709,0.024 1.017,-0.01 1.594,-0.014c-1.495,-0.016 -3.743,-0.091 -5.1,-0.284c-0.754,-0.066 -2.25,-0.216 -3.761,-0.374c2.654,0.23 4.4,0.337 6.202,0.468c-0.035,-0.016 -0.198,-0.04 -0.508,-0.069c4.06,0.133 6.295,0.364 9.044,0.356c0.213,-0.008 0.424,-0.017 0.642,-0.027c0.882,-0.092 -2.25,-0.021 -2.567,-0.072c4.116,-0.013 8.378,-0.303 10.24,-0.606c-4.526,0.526 -8.784,0.619 -12.503,0.461c0.963,-0.056 4.646,0 6.352,-0.114c-7.775,0.233 -8.8,-0.116 -9.468,-0.163c0.632,0.023 1.262,0.042 1.907,0.056c-0.159,-0.019 -0.318,-0.039 -0.482,-0.06c-3.587,-0.14 -7.949,-0.521 -7.724,-0.526c0.168,-0.003 3.572,0.291 7.044,0.438c-0.361,-0.048 -0.722,-0.098 -1.096,-0.152c-4.084,-0.221 -8.841,-0.811 -13.136,-1.282c0.711,0.014 0.349,-0.018 -0.538,-0.172c1.354,0.125 3.261,0.346 4.688,0.459c-0.485,-0.072 -1.369,-0.158 -1.648,-0.222c0.718,0.059 1.841,0.189 2.202,0.175c-1.998,-0.229 -4.166,-0.496 -6.315,-0.79c-0.428,-0.127 0.933,0.104 0.825,0.044c-2.028,-0.28 -4.907,-0.646 -6.397,-0.931c1.738,0.201 5.095,0.701 6.145,0.794c-0.675,-0.107 -1.351,-0.216 -2.048,-0.332c-1.392,-0.193 -2.06,-0.299 -0.49,-0.116c0.843,0.096 0.823,0.088 0.615,0.053c-0.948,-0.173 -4.286,-0.637 -4.175,-0.723c0.845,0.123 4.174,0.587 5.02,0.628c-0.618,-0.156 -2.322,-0.344 -2.485,-0.435c3.686,0.542 3.544,0.468 4.447,0.63c-0.399,-0.038 -1.441,-0.189 -1.408,-0.141c2.257,0.289 4.495,0.549 6.772,0.774c-0.199,-0.074 -0.118,-0.13 0.09,-0.146c-0.966,-0.099 -1.969,-0.219 -3.797,-0.422c0.502,-0.046 2.171,0.159 3.692,0.343c-0.01,-0.016 -0.021,-0.033 -0.032,-0.05c-2.472,-0.244 -6.3,-0.738 -8.887,-1.143c1.186,0.139 5.53,0.695 8.43,1.01c-0.09,-0.028 -0.18,-0.056 -0.273,-0.086c3.648,0.4 7.853,0.635 11.72,0.784c-1.86,-0.176 -4.077,-0.182 -6.571,-0.399c-1.147,-0.101 -2.209,-0.232 -3.332,-0.378c-3.218,-0.279 -13.045,-1.556 -14.172,-1.769c-1.242,-0.234 8.747,1.127 8.807,1.106c0.06,-0.022 -4.551,-0.637 -2.373,-0.349c1.136,0.153 3.604,0.464 5.373,0.663c0.068,-0.053 0.136,-0.105 0.205,-0.159c-1.544,-0.167 -3.384,-0.416 -3.473,-0.311c-0.77,-0.107 -2.404,-0.268 -2.643,-0.357c0.267,0.027 0.663,0.086 0.667,0.057c-0.378,-0.052 -0.93,-0.113 -0.983,-0.153c1.9,0.239 4.502,0.521 6.529,0.738c0.175,-0.009 0.349,-0.018 0.529,-0.028c-0.036,-0.015 -1.612,-0.204 -2.979,-0.377c-1.442,-0.186 1.568,0.143 3.914,0.38c0.375,0.007 0.748,0.013 1.132,0.018c-0.809,-0.071 -1.75,-0.163 -2.865,-0.289c-1.298,-0.174 -1.254,-0.231 -2.563,-0.421c2.422,0.264 5.308,0.552 7.58,0.751c0.833,0.011 1.66,0.016 2.505,0.014c-1.864,-0.144 -3.613,-0.341 -4.655,-0.477c-0.844,-0.07 -1.732,-0.153 -2.042,-0.224c0.798,0.056 -1.276,-0.171 -0.953,-0.209c1.125,0.19 3.371,0.376 4.166,0.537c1.752,0.15 3.643,0.278 5.293,0.365c0.211,0.001 0.422,0.002 0.639,0.002c-1.396,-0.071 -2.736,-0.167 -4.254,-0.314c0.695,-0.049 4.853,0.219 7.749,0.325c5.9,0.028 11.508,0.006 16.492,-1.027c0.203,-0.045 0.49,-0.12 0.803,-0.209c0.349,-0.11 0.694,-0.224 1.046,-0.345c-1.156,0.295 -2.221,0.509 -3.111,0.658c3.559,-0.76 -5.295,0.704 -5.905,0.684c3.106,-0.343 7.374,-0.991 11.25,-2.256c3.875,-1.265 8.586,-3.922 10.994,-6.428c-1.178,1.187 -1.599,1.539 -0.324,0.262c0.344,-0.346 0.672,-0.7 0.991,-1.073c-1.158,1.29 -2.547,2.487 -4.138,3.553c-1.592,1.066 -3.637,2.084 -5.048,2.667c-2.824,1.168 -5.795,1.93 -8.523,2.342c3.223,-0.592 7.647,-1.997 8.753,-2.562c-0.805,0.333 -2.012,0.783 -2.194,0.808c0.725,-0.288 2.216,-0.795 4.124,-1.751c1.909,-0.955 3.529,-2.097 4.195,-2.666c-1.695,1.308 -4.336,2.756 -6.219,3.537c-1.882,0.782 -3.944,1.432 -6.062,1.928c-4.236,0.992 -8.709,1.346 -11.968,1.392c4.927,-0.152 10.325,-0.843 14.886,-2.272c4.561,-1.429 9.659,-4.473 12.166,-7.316c-0.845,1.008 -0.872,1.023 -0.366,0.531c1.629,-1.743 2.838,-3.688 3.589,-5.925c0.131,-0.457 0.105,-0.292 -0.325,0.752c-0.355,0.858 -0.605,1.338 -0.779,1.584c0.276,-0.563 2.785,-7.317 0.815,-1.936c-0.983,2.683 -3.491,5.822 -5.64,7.513c-2.149,1.691 -3.148,2.326 -0.558,0.37c2.59,-1.956 3.74,-3.652 4.236,-4.409c0.497,-0.758 0.412,-0.562 -0.575,0.696c-0.991,1.264 -3.558,3.663 -6.101,5.109c-2.542,1.446 -4.604,2.17 -2.692,1.308c1.904,-0.859 4.597,-2.401 6.662,-4.341c2.064,-1.94 3.47,-4.253 4.178,-6.055c0.711,-1.809 0.491,-1.201 0.418,-0.768c-0.073,0.433 0.174,0.77 0.663,-2.202c0.489,-2.973 0.186,-3.375 0.172,-2.992c-0.015,0.383 -0.063,1.393 -0.045,0.791c0.056,-1.906 -0.472,-5.848 -1.803,-8.95c-0.944,-2.172 -2.635,-4.633 -3.638,-5.751c0.036,0.109 3.871,6.01 2.46,3.604c-3.381,-5.975 -10.509,-10.144 -7.745,-8.363c-3.649,-2.5 -7.082,-3.82 -9.678,-4.677c-4.074,-1.211 -9.297,-2.029 -9.882,-2.081c-0.342,-0.029 -3.605,-0.513 -7.487,-0.599c-3.882,-0.087 -7.779,0.283 -9.975,0.792c-0.168,0.024 -2.244,0.349 -4.338,0.916c-2.094,0.568 -4.199,1.417 -4.546,1.525c-3.64,1.662 -4.902,2.777 -6.149,3.793c-1.248,1.015 -2.584,1.986 -4.601,4.847c-3.37,4.784 -3.093,6.841 -3.24,7.787c-0.462,2.959 -0.114,4.47 0.063,5.582c0.178,1.112 0.274,1.845 0.682,3.387c0.25,0.929 0.955,2.29 1.065,2.849c0.22,1.117 0.16,1.851 -0.555,1.891Zm22.325,14.69c-1.357,-0.099 -3.826,-0.386 -5.284,-0.523c1.653,0.273 3.701,0.476 5.76,0.633c-0.157,-0.036 -0.314,-0.072 -0.476,-0.11Zm10.248,-0.531c-0.855,-0.025 -1.897,0.002 -2.874,-0.063c-0.925,-0.048 -1.891,-0.087 -3.319,-0.228c0.13,-0.03 2.478,0.089 4.263,0.173c0,-0.021 0.001,-0.043 0.002,-0.064c-0.864,-0.068 -1.893,-0.14 -3.134,-0.22c-0.421,-0.022 -0.844,-0.046 -1.281,-0.073c-0.039,0.037 0.628,0.113 0.881,0.119c-0.329,0.04 -1.431,-0.005 -2.877,-0.11c-0.176,-0.003 -0.353,-0.006 -0.534,-0.009c-0.207,0.039 0.892,0.166 -0.338,0.049c0.858,0.142 3.087,0.265 4.453,0.367c-1.52,-0.23 4.202,0.152 5.576,0.12c-0.269,-0.02 -0.539,-0.039 -0.818,-0.061Zm10.541,2.389c0.718,-0.067 1.43,-0.145 2.157,-0.235c-1.045,0.123 -1.858,0.193 -2.609,0.249c0.149,-0.004 0.298,-0.009 0.452,-0.014Zm22.358,-42.872c1.634,1.705 3.951,4.547 5.42,7.404c1.47,2.857 2.147,5.634 2.181,5.984c0.264,1.055 0.477,2.149 0.62,3.305c-0.819,-7.307 -4.857,-13.38 -8.221,-16.693Zm3.835,15.61c0.074,0.363 0.071,0.203 -0.102,-0.662c-0.933,-4.605 -2.305,-6.796 -1.211,-4.207c0.935,2.211 1.871,7.739 1.685,6.104c-0.269,-2.172 -0.828,-4.266 -1.643,-6.207c-0.657,-1.476 -1.473,-2.788 -2.433,-4.011c1.91,2.753 3.136,5.819 3.704,8.983Zm-4.923,-10.405c0.762,0.92 1.597,2.073 2.314,3.329c-0.612,-1.095 -1.309,-2.131 -2.112,-3.138c-0.066,-0.063 -0.133,-0.127 -0.202,-0.191Zm-1.074,-1.095c1.657,1.787 3.043,3.78 1.582,1.823c-0.329,-0.439 -0.673,-0.868 -1.044,-1.298c-0.175,-0.176 -0.353,-0.349 -0.538,-0.525Zm-1.09,-1.041c0.04,0.003 0.363,0.27 0.927,0.857c-1.138,-1.206 -3.778,-3.329 -3.685,-3.189c0.909,0.68 1.857,1.468 2.758,2.332Zm0.957,-5.218c1,0.78 1.859,1.479 0.309,0.193c-0.59,-0.488 -1.198,-0.957 -1.842,-1.42c0.519,0.391 1.025,0.796 1.533,1.227Zm-18.747,41.237c0.466,-0.046 2.208,-0.282 3.194,-0.426c0.137,0.177 -3.835,0.583 -3.194,0.426Zm-6.873,0.377c0.483,-0.005 2.359,-0.077 3.439,-0.127c0.126,0.194 -4.136,0.226 -3.439,0.127Zm-15.954,-45.712c0.006,-0.001 0.011,-0.002 0.016,-0.003c-0.005,0.001 -0.01,0.002 -0.016,0.003Z" style="fill:#ebb44c;fill-rule:nonzero;"/>
</svg>